<svg width="67" height="68" viewBox="0 0 67 68" fill="none" xmlns="http://www.w3.org/2000/svg">
<path d="M2 33.625C2 16.159 16.2412 2 33.8085 2C37.0463 2 40.1712 2.48098 43.1147 3.375" stroke="white" stroke-width="4" stroke-linecap="round" stroke-linejoin="round"/>
<path fill-rule="evenodd" clip-rule="evenodd" d="M26.9629 40.4309C30.7435 44.1897 36.8731 44.1897 40.6537 40.4309C44.4343 36.6721 60.0847 10.2501 58.7017 8.87506C57.3188 7.50007 30.7435 23.0603 26.9629 26.8191C23.1823 30.5779 23.1823 36.6721 26.9629 40.4309ZM33.8081 36.3751C35.3357 36.3751 36.5741 35.1438 36.5741 33.6251C36.5741 32.1063 35.3357 30.8751 33.8081 30.8751C32.2805 30.8751 31.0422 32.1063 31.0422 33.6251C31.0422 35.1438 32.2805 36.3751 33.8081 36.3751Z" fill="white"/>
<ellipse cx="6.14877" cy="50.125" rx="2.76596" ry="2.75" fill="white"/>
<ellipse cx="17.2127" cy="61.125" rx="2.76596" ry="2.75" fill="white"/>
<ellipse cx="33.8084" cy="65.25" rx="2.76596" ry="2.75" fill="white"/>
<ellipse cx="50.4041" cy="61.125" rx="2.76596" ry="2.75" fill="white"/>
<ellipse cx="60.0853" cy="50.125" rx="2.76596" ry="2.75" fill="white"/>
<ellipse cx="64.2342" cy="33.625" rx="2.76596" ry="2.75" fill="white"/>
</svg>
