<svg width="117" height="25" viewBox="0 0 117 25" fill="none" xmlns="http://www.w3.org/2000/svg">
<path fill-rule="evenodd" clip-rule="evenodd" d="M15.2126 6.51993C13.1534 6.37225 11.4065 7.63688 10.4329 7.63688C9.44383 7.63688 7.9192 6.55177 6.30258 6.58007C4.18049 6.61191 2.22325 7.77927 1.12942 9.62581C-1.07555 13.3428 0.566561 18.8488 2.71415 21.8627C3.76427 23.3378 5.01658 24.9969 6.66234 24.9368C8.24708 24.8758 8.84545 23.9401 10.7599 23.9401C12.6734 23.9401 13.2135 24.9368 14.8884 24.9049C16.5925 24.8758 17.6735 23.4033 18.7155 21.9202C19.9222 20.2107 20.4186 18.5561 20.4477 18.4659C20.4095 18.4535 17.1243 17.2269 17.0916 13.5524C17.0624 10.481 19.6745 9.00322 19.7938 8.93159C18.3102 6.81177 16.0196 6.5783 15.2126 6.51993ZM97.5088 18.5172V18.8426C97.5088 22.0502 95.0926 24.92 90.2436 24.92C85.4083 24.92 82.534 21.9724 82.534 16.821V14.6693C82.534 9.57098 85.422 6.53143 90.2564 6.53143C94.7956 6.53143 97.5088 9.3101 97.5088 12.7786V12.9607H93.8685C93.8685 11.2009 92.7136 9.63554 90.2828 9.63554C87.6907 9.63554 86.3874 11.3176 86.3874 14.6693V16.821C86.3874 20.2116 87.678 21.7902 90.3092 21.7902C92.9286 21.7902 93.8685 20.3549 93.8685 18.5172H97.5088ZM31.3087 19.5342H31.3624L34.6266 6.81885H38.481L41.7579 19.5342H41.8116L44.8481 6.81885H48.9038L43.8135 24.6211H39.9582L36.5875 12.4522H36.5201L33.1484 24.6211H29.3214L24.2174 6.81885H28.274L31.3087 19.5342ZM105.352 13.9654H112.846V6.81885H116.661V24.6211H112.846V17.0306H105.352V24.6211H101.552V6.81885H105.352V13.9654ZM80.0758 6.81885V9.89643H74.6103V24.6211H70.8224V9.89643H65.3696V6.81885H80.0758ZM59.5398 6.81885L65.4361 24.6202H61.3659L60.0589 20.1338H54.26L52.9321 24.6202H49.1315L55.0415 6.81885H59.5398ZM59.2638 17.3958L57.2036 10.3271H57.1636L55.0715 17.3958H59.2638ZM13.8583 4.62475C12.9785 5.60462 11.5932 6.35014 10.2335 6.24844C10.0404 4.85468 10.7508 3.40079 11.5595 2.49167C12.4621 1.46757 13.984 0.700832 15.2427 0.653076C15.4048 2.07336 14.8155 3.50426 13.9412 4.52835L13.9002 4.57699L13.8583 4.62475Z" fill="#D6DAE5"/>
</svg>
