<?xml version="1.0" encoding="utf-8"?>
<!-- Generator: Adobe Illustrator 26.0.0, SVG Export Plug-In . SVG Version: 6.00 Build 0)  -->
<svg version="1.1" id="Layer_1" xmlns="http://www.w3.org/2000/svg" xmlns:xlink="http://www.w3.org/1999/xlink" x="0px" y="0px"
	 viewBox="0 0 1440 570" style="enable-background:new 0 0 1440 570;" xml:space="preserve">
<style type="text/css">
	.st0{fill:url(#SVGID_1_);}
	.st1{fill:#FFFFFF;}
	.st2{fill:#5283FF;}
	.st3{fill:#D1D6E3;}
	.st4{fill:none;stroke:#5F82FF;stroke-width:3;}
	.st5{fill:url(#SVGID_00000083047870463455178870000018024457889562206616_);fill-opacity:0.4;}
	.st6{fill:none;stroke:#D8E0F7;}
	.st7{fill:none;stroke:#5E80FE;stroke-width:2;}
	.st8{fill:none;stroke:#D8E3FE;}
	.st9{fill-rule:evenodd;clip-rule:evenodd;fill:#FFFFFF;}
	.st10{fill-rule:evenodd;clip-rule:evenodd;fill:#FFFFFF;filter:url(#Adobe_OpacityMaskFilter);}
	.st11{mask:url(#path-33-inside-1_12_69_00000163067268747323606630000015356438701973353135_);fill:#D8E0F7;}
	.st12{fill:none;stroke:#5F82FF;stroke-width:4;stroke-linecap:round;stroke-linejoin:round;}
	.st13{fill-rule:evenodd;clip-rule:evenodd;fill:#5F82FF;}
	.st14{fill:#5F82FF;}
</style>
<linearGradient id="SVGID_1_" gradientUnits="userSpaceOnUse" x1="720" y1="578" x2="720" y2="8" gradientTransform="matrix(1 0 0 -1 0 578)">
	<stop  offset="0" style="stop-color:#F4F7FF"/>
	<stop  offset="1" style="stop-color:#F1F5FF"/>
</linearGradient>
<rect class="st0" width="1440" height="570"/>
<g>
	<path class="st1" d="M1439.5,407c-30.7,0-55.5,24.6-55.5,55h55.5V407z"/>
</g>
<circle class="st2" cx="700" cy="538" r="4"/>
<circle class="st3" cx="720" cy="538" r="4"/>
<circle class="st3" cx="740" cy="538" r="4"/>
<path class="st4" d="M0,527.5c202.7,0,347.5-34.9,480.3-32.8c309.4,4.9,163.3-142.1,480.3-142.1c345.2,0,262.6-129.7,480.3-129.7"/>
<linearGradient id="SVGID_00000163048076465265862070000004227523842689473694_" gradientUnits="userSpaceOnUse" x1="720.5" y1="7.557" x2="720.5" y2="462.995" gradientTransform="matrix(1 0 0 -1 0 578)">
	<stop  offset="0" style="stop-color:#4B71FF;stop-opacity:0"/>
	<stop  offset="1" style="stop-color:#6B89F8"/>
</linearGradient>
<path style="fill:url(#SVGID_00000163048076465265862070000004227523842689473694_);fill-opacity:0.4;" d="M480.3,494.8
	C347.5,492.6,202.7,527.5,0,527.5V570h1441V223c-217.8,0-135.1,129.7-480.3,129.7C643.6,352.7,789.7,499.7,480.3,494.8z"/>
<line class="st6" x1="924.5" y1="305" x2="924.5" y2="494"/>
<g>
	<circle class="st1" cx="924.5" cy="353.5" r="7.5"/>
	<circle class="st7" cx="924.5" cy="353.5" r="6.5"/>
</g>
<line class="st6" x1="1332.5" y1="105" x2="1332.5" y2="422"/>
<g>
	<circle class="st1" cx="1332.5" cy="239.5" r="7.5"/>
	<circle class="st7" cx="1332.5" cy="239.5" r="6.5"/>
</g>
<line class="st6" x1="515.5" y1="483" x2="515.5" y2="542"/>
<line class="st6" x1="107.5" y1="367" x2="107.5" y2="557"/>
<g>
	<circle class="st1" cx="107.5" cy="524.5" r="7.5"/>
	<circle class="st7" cx="107.5" cy="524.5" r="6.5"/>
</g>
<g>
	<path class="st1" d="M264.7,398.5c-6.5,0-11.7,5.3-11.7,11.9h23.4C276.4,403.8,271.2,398.5,264.7,398.5z"/>
</g>
<g>
	<path class="st1" d="M310.7,404.5c-9,0-16.3,7.4-16.3,16.5H327C327,411.9,319.7,404.5,310.7,404.5z"/>
</g>
<g>
	<path class="st1" d="M286.1,396.2c-13.7,0-24.8,11.1-24.8,24.8h49.6C310.9,407.3,299.8,396.2,286.1,396.2z"/>
</g>
<g>
	<path class="st1" d="M1205,494.5c-18.8,0-34,15.5-34,34.5h68C1239,509.9,1223.8,494.5,1205,494.5z"/>
</g>
<g>
	<path class="st1" d="M1181.7,465c-13.1,0-23.7,10.8-23.7,24.1h47.4C1205.4,475.8,1194.8,465,1181.7,465z"/>
</g>
<g>
	<path class="st1" d="M1136.7,477.2c-28.6,0-51.7,23.2-51.7,51.8h103.5C1188.5,500.4,1165.3,477.2,1136.7,477.2z"/>
</g>
<g>
	<path class="st1" d="M1262.9,53c-21.5,0-38.9,17.5-38.9,39h77.8C1301.8,70.5,1284.4,53,1262.9,53z"/>
</g>
<g>
	<path class="st1" d="M1279.5,86c-12.4,0-22.5,10.3-22.5,23h45C1302,96.3,1291.9,86,1279.5,86z"/>
</g>
<g>
	<path class="st1" d="M275.5,92c-12.4,0-22.5,10.3-22.5,23h45C298,102.3,287.9,92,275.5,92z"/>
</g>
<g>
	<path class="st1" d="M75,252c0-42-33.4-76-74.5-76v76H75z"/>
</g>
<g>
	<path class="st1" d="M317.1,386c-5.5,0-9.9,4.6-9.9,10.2H327C327,390.6,322.6,386,317.1,386z"/>
</g>
<g>
	<path class="st1" d="M1223.5,37c-8.6,0-15.5,7.2-15.5,16h31C1239,44.2,1232.1,37,1223.5,37z"/>
</g>
<line class="st8" x1="0" y1="0.5" x2="1440" y2="0.5"/>
<g>
	<circle class="st1" cx="515.5" cy="494.5" r="7.5"/>
	<circle class="st7" cx="515.5" cy="494.5" r="6.5"/>
</g>
<g>
	<path class="st9" d="M562,408c0-1.7-1.3-3-3-3h-86c-1.7,0-3,1.3-3,3v57.3c0,1.7,1.3,3,3,3h36.7c1,0,1.9,0.5,2.5,1.3l1.4,2
		c1.2,1.8,3.8,1.8,5,0l1.4-2c0.6-0.8,1.5-1.3,2.5-1.3H559c1.7,0,3-1.3,3-3V408z"/>
	<defs>
		<filter id="Adobe_OpacityMaskFilter" filterUnits="userSpaceOnUse" x="469" y="404" width="94" height="69.9">
			<feColorMatrix  type="matrix" values="1 0 0 0 0  0 1 0 0 0  0 0 1 0 0  0 0 0 1 0"/>
		</filter>
	</defs>
	
		<mask maskUnits="userSpaceOnUse" x="469" y="404" width="94" height="69.9" id="path-33-inside-1_12_69_00000163067268747323606630000015356438701973353135_">
		<path class="st10" d="M562,408c0-1.7-1.3-3-3-3h-86c-1.7,0-3,1.3-3,3v57.3c0,1.7,1.3,3,3,3h36.7c1,0,1.9,0.5,2.5,1.3l1.4,2
			c1.2,1.8,3.8,1.8,5,0l1.4-2c0.6-0.8,1.5-1.3,2.5-1.3H559c1.7,0,3-1.3,3-3V408z"/>
	</mask>
	<path class="st11" d="M519.8,469.6L519,469L519.8,469.6z M513.5,471.6l0.8-0.6L513.5,471.6z M518.5,471.6l0.8,0.6L518.5,471.6z
		 M473,406h86v-2h-86V406z M471,465.3V408h-2v57.3H471z M509.7,467.3H473v2h36.7V467.3z M514.3,471l-1.4-2l-1.7,1.1l1.4,2L514.3,471
		z M519,469l-1.4,2l1.7,1.1l1.4-2L519,469z M559,467.3h-36.7v2H559V467.3z M561,408v57.3h2V408H561z M559,469.3c2.2,0,4-1.8,4-4h-2
		c0,1.1-0.9,2-2,2V469.3z M520.7,470.1c0.4-0.6,1-0.9,1.7-0.9v-2c-1.3,0-2.6,0.7-3.3,1.8L520.7,470.1z M512.7,472.2
		c1.6,2.3,5,2.3,6.6,0l-1.7-1.1c-0.8,1.2-2.5,1.2-3.3,0L512.7,472.2z M509.7,469.3c0.7,0,1.3,0.3,1.7,0.9l1.7-1.1
		c-0.7-1.1-2-1.8-3.3-1.8V469.3z M469,465.3c0,2.2,1.8,4,4,4v-2c-1.1,0-2-0.9-2-2H469z M559,406c1.1,0,2,0.9,2,2h2c0-2.2-1.8-4-4-4
		V406z M473,404c-2.2,0-4,1.8-4,4h2c0-1.1,0.9-2,2-2V404z"/>
	<path class="st12" d="M499,438.2c0-9.5,7.7-17.2,17.1-17.2c1.7,0,3.4,0.3,5,0.8"/>
	<path class="st13" d="M512.4,442c2,2.1,5.3,2.1,7.4,0c2-2.1,10.5-16.5,9.7-17.2c-0.7-0.8-15.1,7.7-17.1,9.8
		C510.4,436.6,510.4,439.9,512.4,442z M516.1,439.8c0.8,0,1.5-0.7,1.5-1.5s-0.7-1.5-1.5-1.5c-0.8,0-1.5,0.7-1.5,1.5
		S515.3,439.8,516.1,439.8z"/>
	<ellipse class="st14" cx="501.2" cy="447.2" rx="1.5" ry="1.5"/>
	<ellipse class="st14" cx="507.2" cy="453.2" rx="1.5" ry="1.5"/>
	<ellipse class="st14" cx="516.1" cy="455.5" rx="1.5" ry="1.5"/>
	<ellipse class="st14" cx="525.1" cy="453.2" rx="1.5" ry="1.5"/>
	<ellipse class="st14" cx="530.3" cy="447.2" rx="1.5" ry="1.5"/>
	<ellipse class="st14" cx="532.5" cy="438.2" rx="1.5" ry="1.5"/>
</g>
</svg>
